<?xml version="1.0" encoding="utf-8" standalone="no"?>
<!DOCTYPE svg PUBLIC "-//W3C//DTD SVG 1.1//EN"
  "http://www.w3.org/Graphics/SVG/1.1/DTD/svg11.dtd">
<svg height="424.8pt" version="1.1" viewBox="0 0 568.8 424.8" width="568.8pt" xmlns="http://www.w3.org/2000/svg" xmlns:xlink="http://www.w3.org/1999/xlink">
 <metadata>
  <rdf:RDF xmlns:cc="http://creativecommons.org/ns#" xmlns:dc="http://purl.org/dc/elements/1.1/" xmlns:rdf="http://www.w3.org/1999/02/22-rdf-syntax-ns#">
   <cc:Work>
    <dc:type rdf:resource="http://purl.org/dc/dcmitype/StillImage"/>
    <dc:date>2021-06-19T16:26:08.527273</dc:date>
    <dc:format>image/svg+xml</dc:format>
    <dc:creator>
     <cc:Agent>
      <dc:title>Matplotlib v3.4.1, https://matplotlib.org/</dc:title>
     </cc:Agent>
    </dc:creator>
   </cc:Work>
  </rdf:RDF>
 </metadata>
 <defs>
  <style type="text/css">*{stroke-linecap:butt;stroke-linejoin:round;}</style>
 </defs>
 <g id="figure_1">
  <g id="patch_1">
   <path d="M 0 424.8 
L 568.8 424.8 
L 568.8 0 
L 0 0 
z
" style="fill:#ffffff;"/>
  </g>
  <g id="axes_1">
   <g id="patch_2">
    <path d="M 50.81 384.340312 
L 561.6 384.340312 
L 561.6 7.2 
L 50.81 7.2 
z
" style="fill:#ffffff;"/>
   </g>
   <g id="matplotlib.axis_1">
    <g id="xtick_1">
     <g id="line2d_1">
      <defs>
       <path d="M 0 0 
L 0 3.5 
" id="ma254c2b39b" style="stroke:#000000;stroke-width:0.8;"/>
      </defs>
      <g>
       <use style="stroke:#000000;stroke-width:0.8;" x="74.027727" xlink:href="#ma254c2b39b" y="384.340312"/>
      </g>
     </g>
     <g id="text_1">
      <!-- 0 -->
      <g transform="translate(70.528352 399.698594)scale(0.11 -0.11)">
       <defs>
        <path d="M 2034 4250 
Q 1547 4250 1301 3770 
Q 1056 3291 1056 2328 
Q 1056 1369 1301 889 
Q 1547 409 2034 409 
Q 2525 409 2770 889 
Q 3016 1369 3016 2328 
Q 3016 3291 2770 3770 
Q 2525 4250 2034 4250 
z
M 2034 4750 
Q 2819 4750 3233 4129 
Q 3647 3509 3647 2328 
Q 3647 1150 3233 529 
Q 2819 -91 2034 -91 
Q 1250 -91 836 529 
Q 422 1150 422 2328 
Q 422 3509 836 4129 
Q 1250 4750 2034 4750 
z
" id="DejaVuSans-30" transform="scale(0.015625)"/>
       </defs>
       <use xlink:href="#DejaVuSans-30"/>
      </g>
     </g>
    </g>
    <g id="xtick_2">
     <g id="line2d_2">
      <g>
       <use style="stroke:#000000;stroke-width:0.8;" x="166.9916" xlink:href="#ma254c2b39b" y="384.340312"/>
      </g>
     </g>
     <g id="text_2">
      <!-- 20 -->
      <g transform="translate(159.99285 399.698594)scale(0.11 -0.11)">
       <defs>
        <path d="M 1228 531 
L 3431 531 
L 3431 0 
L 469 0 
L 469 531 
Q 828 903 1448 1529 
Q 2069 2156 2228 2338 
Q 2531 2678 2651 2914 
Q 2772 3150 2772 3378 
Q 2772 3750 2511 3984 
Q 2250 4219 1831 4219 
Q 1534 4219 1204 4116 
Q 875 4013 500 3803 
L 500 4441 
Q 881 4594 1212 4672 
Q 1544 4750 1819 4750 
Q 2544 4750 2975 4387 
Q 3406 4025 3406 3419 
Q 3406 3131 3298 2873 
Q 3191 2616 2906 2266 
Q 2828 2175 2409 1742 
Q 1991 1309 1228 531 
z
" id="DejaVuSans-32" transform="scale(0.015625)"/>
       </defs>
       <use xlink:href="#DejaVuSans-32"/>
       <use x="63.623047" xlink:href="#DejaVuSans-30"/>
      </g>
     </g>
    </g>
    <g id="xtick_3">
     <g id="line2d_3">
      <g>
       <use style="stroke:#000000;stroke-width:0.8;" x="259.955473" xlink:href="#ma254c2b39b" y="384.340312"/>
      </g>
     </g>
     <g id="text_3">
      <!-- 40 -->
      <g transform="translate(252.956723 399.698594)scale(0.11 -0.11)">
       <defs>
        <path d="M 2419 4116 
L 825 1625 
L 2419 1625 
L 2419 4116 
z
M 2253 4666 
L 3047 4666 
L 3047 1625 
L 3713 1625 
L 3713 1100 
L 3047 1100 
L 3047 0 
L 2419 0 
L 2419 1100 
L 313 1100 
L 313 1709 
L 2253 4666 
z
" id="DejaVuSans-34" transform="scale(0.015625)"/>
       </defs>
       <use xlink:href="#DejaVuSans-34"/>
       <use x="63.623047" xlink:href="#DejaVuSans-30"/>
      </g>
     </g>
    </g>
    <g id="xtick_4">
     <g id="line2d_4">
      <g>
       <use style="stroke:#000000;stroke-width:0.8;" x="352.919346" xlink:href="#ma254c2b39b" y="384.340312"/>
      </g>
     </g>
     <g id="text_4">
      <!-- 60 -->
      <g transform="translate(345.920596 399.698594)scale(0.11 -0.11)">
       <defs>
        <path d="M 2113 2584 
Q 1688 2584 1439 2293 
Q 1191 2003 1191 1497 
Q 1191 994 1439 701 
Q 1688 409 2113 409 
Q 2538 409 2786 701 
Q 3034 994 3034 1497 
Q 3034 2003 2786 2293 
Q 2538 2584 2113 2584 
z
M 3366 4563 
L 3366 3988 
Q 3128 4100 2886 4159 
Q 2644 4219 2406 4219 
Q 1781 4219 1451 3797 
Q 1122 3375 1075 2522 
Q 1259 2794 1537 2939 
Q 1816 3084 2150 3084 
Q 2853 3084 3261 2657 
Q 3669 2231 3669 1497 
Q 3669 778 3244 343 
Q 2819 -91 2113 -91 
Q 1303 -91 875 529 
Q 447 1150 447 2328 
Q 447 3434 972 4092 
Q 1497 4750 2381 4750 
Q 2619 4750 2861 4703 
Q 3103 4656 3366 4563 
z
" id="DejaVuSans-36" transform="scale(0.015625)"/>
       </defs>
       <use xlink:href="#DejaVuSans-36"/>
       <use x="63.623047" xlink:href="#DejaVuSans-30"/>
      </g>
     </g>
    </g>
    <g id="xtick_5">
     <g id="line2d_5">
      <g>
       <use style="stroke:#000000;stroke-width:0.8;" x="445.883219" xlink:href="#ma254c2b39b" y="384.340312"/>
      </g>
     </g>
     <g id="text_5">
      <!-- 80 -->
      <g transform="translate(438.884469 399.698594)scale(0.11 -0.11)">
       <defs>
        <path d="M 2034 2216 
Q 1584 2216 1326 1975 
Q 1069 1734 1069 1313 
Q 1069 891 1326 650 
Q 1584 409 2034 409 
Q 2484 409 2743 651 
Q 3003 894 3003 1313 
Q 3003 1734 2745 1975 
Q 2488 2216 2034 2216 
z
M 1403 2484 
Q 997 2584 770 2862 
Q 544 3141 544 3541 
Q 544 4100 942 4425 
Q 1341 4750 2034 4750 
Q 2731 4750 3128 4425 
Q 3525 4100 3525 3541 
Q 3525 3141 3298 2862 
Q 3072 2584 2669 2484 
Q 3125 2378 3379 2068 
Q 3634 1759 3634 1313 
Q 3634 634 3220 271 
Q 2806 -91 2034 -91 
Q 1263 -91 848 271 
Q 434 634 434 1313 
Q 434 1759 690 2068 
Q 947 2378 1403 2484 
z
M 1172 3481 
Q 1172 3119 1398 2916 
Q 1625 2713 2034 2713 
Q 2441 2713 2670 2916 
Q 2900 3119 2900 3481 
Q 2900 3844 2670 4047 
Q 2441 4250 2034 4250 
Q 1625 4250 1398 4047 
Q 1172 3844 1172 3481 
z
" id="DejaVuSans-38" transform="scale(0.015625)"/>
       </defs>
       <use xlink:href="#DejaVuSans-38"/>
       <use x="63.623047" xlink:href="#DejaVuSans-30"/>
      </g>
     </g>
    </g>
    <g id="xtick_6">
     <g id="line2d_6">
      <g>
       <use style="stroke:#000000;stroke-width:0.8;" x="538.847092" xlink:href="#ma254c2b39b" y="384.340312"/>
      </g>
     </g>
     <g id="text_6">
      <!-- 100 -->
      <g transform="translate(528.348967 399.698594)scale(0.11 -0.11)">
       <defs>
        <path d="M 794 531 
L 1825 531 
L 1825 4091 
L 703 3866 
L 703 4441 
L 1819 4666 
L 2450 4666 
L 2450 531 
L 3481 531 
L 3481 0 
L 794 0 
L 794 531 
z
" id="DejaVuSans-31" transform="scale(0.015625)"/>
       </defs>
       <use xlink:href="#DejaVuSans-31"/>
       <use x="63.623047" xlink:href="#DejaVuSans-30"/>
       <use x="127.246094" xlink:href="#DejaVuSans-30"/>
      </g>
     </g>
    </g>
    <g id="text_7">
     <!-- (inverse) view percentile -->
     <g transform="translate(231.892187 415.104375)scale(0.12 -0.12)">
      <defs>
       <path d="M 1984 4856 
Q 1566 4138 1362 3434 
Q 1159 2731 1159 2009 
Q 1159 1288 1364 580 
Q 1569 -128 1984 -844 
L 1484 -844 
Q 1016 -109 783 600 
Q 550 1309 550 2009 
Q 550 2706 781 3412 
Q 1013 4119 1484 4856 
L 1984 4856 
z
" id="DejaVuSans-28" transform="scale(0.015625)"/>
       <path d="M 603 3500 
L 1178 3500 
L 1178 0 
L 603 0 
L 603 3500 
z
M 603 4863 
L 1178 4863 
L 1178 4134 
L 603 4134 
L 603 4863 
z
" id="DejaVuSans-69" transform="scale(0.015625)"/>
       <path d="M 3513 2113 
L 3513 0 
L 2938 0 
L 2938 2094 
Q 2938 2591 2744 2837 
Q 2550 3084 2163 3084 
Q 1697 3084 1428 2787 
Q 1159 2491 1159 1978 
L 1159 0 
L 581 0 
L 581 3500 
L 1159 3500 
L 1159 2956 
Q 1366 3272 1645 3428 
Q 1925 3584 2291 3584 
Q 2894 3584 3203 3211 
Q 3513 2838 3513 2113 
z
" id="DejaVuSans-6e" transform="scale(0.015625)"/>
       <path d="M 191 3500 
L 800 3500 
L 1894 563 
L 2988 3500 
L 3597 3500 
L 2284 0 
L 1503 0 
L 191 3500 
z
" id="DejaVuSans-76" transform="scale(0.015625)"/>
       <path d="M 3597 1894 
L 3597 1613 
L 953 1613 
Q 991 1019 1311 708 
Q 1631 397 2203 397 
Q 2534 397 2845 478 
Q 3156 559 3463 722 
L 3463 178 
Q 3153 47 2828 -22 
Q 2503 -91 2169 -91 
Q 1331 -91 842 396 
Q 353 884 353 1716 
Q 353 2575 817 3079 
Q 1281 3584 2069 3584 
Q 2775 3584 3186 3129 
Q 3597 2675 3597 1894 
z
M 3022 2063 
Q 3016 2534 2758 2815 
Q 2500 3097 2075 3097 
Q 1594 3097 1305 2825 
Q 1016 2553 972 2059 
L 3022 2063 
z
" id="DejaVuSans-65" transform="scale(0.015625)"/>
       <path d="M 2631 2963 
Q 2534 3019 2420 3045 
Q 2306 3072 2169 3072 
Q 1681 3072 1420 2755 
Q 1159 2438 1159 1844 
L 1159 0 
L 581 0 
L 581 3500 
L 1159 3500 
L 1159 2956 
Q 1341 3275 1631 3429 
Q 1922 3584 2338 3584 
Q 2397 3584 2469 3576 
Q 2541 3569 2628 3553 
L 2631 2963 
z
" id="DejaVuSans-72" transform="scale(0.015625)"/>
       <path d="M 2834 3397 
L 2834 2853 
Q 2591 2978 2328 3040 
Q 2066 3103 1784 3103 
Q 1356 3103 1142 2972 
Q 928 2841 928 2578 
Q 928 2378 1081 2264 
Q 1234 2150 1697 2047 
L 1894 2003 
Q 2506 1872 2764 1633 
Q 3022 1394 3022 966 
Q 3022 478 2636 193 
Q 2250 -91 1575 -91 
Q 1294 -91 989 -36 
Q 684 19 347 128 
L 347 722 
Q 666 556 975 473 
Q 1284 391 1588 391 
Q 1994 391 2212 530 
Q 2431 669 2431 922 
Q 2431 1156 2273 1281 
Q 2116 1406 1581 1522 
L 1381 1569 
Q 847 1681 609 1914 
Q 372 2147 372 2553 
Q 372 3047 722 3315 
Q 1072 3584 1716 3584 
Q 2034 3584 2315 3537 
Q 2597 3491 2834 3397 
z
" id="DejaVuSans-73" transform="scale(0.015625)"/>
       <path d="M 513 4856 
L 1013 4856 
Q 1481 4119 1714 3412 
Q 1947 2706 1947 2009 
Q 1947 1309 1714 600 
Q 1481 -109 1013 -844 
L 513 -844 
Q 928 -128 1133 580 
Q 1338 1288 1338 2009 
Q 1338 2731 1133 3434 
Q 928 4138 513 4856 
z
" id="DejaVuSans-29" transform="scale(0.015625)"/>
       <path id="DejaVuSans-20" transform="scale(0.015625)"/>
       <path d="M 269 3500 
L 844 3500 
L 1563 769 
L 2278 3500 
L 2956 3500 
L 3675 769 
L 4391 3500 
L 4966 3500 
L 4050 0 
L 3372 0 
L 2619 2869 
L 1863 0 
L 1184 0 
L 269 3500 
z
" id="DejaVuSans-77" transform="scale(0.015625)"/>
       <path d="M 1159 525 
L 1159 -1331 
L 581 -1331 
L 581 3500 
L 1159 3500 
L 1159 2969 
Q 1341 3281 1617 3432 
Q 1894 3584 2278 3584 
Q 2916 3584 3314 3078 
Q 3713 2572 3713 1747 
Q 3713 922 3314 415 
Q 2916 -91 2278 -91 
Q 1894 -91 1617 61 
Q 1341 213 1159 525 
z
M 3116 1747 
Q 3116 2381 2855 2742 
Q 2594 3103 2138 3103 
Q 1681 3103 1420 2742 
Q 1159 2381 1159 1747 
Q 1159 1113 1420 752 
Q 1681 391 2138 391 
Q 2594 391 2855 752 
Q 3116 1113 3116 1747 
z
" id="DejaVuSans-70" transform="scale(0.015625)"/>
       <path d="M 3122 3366 
L 3122 2828 
Q 2878 2963 2633 3030 
Q 2388 3097 2138 3097 
Q 1578 3097 1268 2742 
Q 959 2388 959 1747 
Q 959 1106 1268 751 
Q 1578 397 2138 397 
Q 2388 397 2633 464 
Q 2878 531 3122 666 
L 3122 134 
Q 2881 22 2623 -34 
Q 2366 -91 2075 -91 
Q 1284 -91 818 406 
Q 353 903 353 1747 
Q 353 2603 823 3093 
Q 1294 3584 2113 3584 
Q 2378 3584 2631 3529 
Q 2884 3475 3122 3366 
z
" id="DejaVuSans-63" transform="scale(0.015625)"/>
       <path d="M 1172 4494 
L 1172 3500 
L 2356 3500 
L 2356 3053 
L 1172 3053 
L 1172 1153 
Q 1172 725 1289 603 
Q 1406 481 1766 481 
L 2356 481 
L 2356 0 
L 1766 0 
Q 1100 0 847 248 
Q 594 497 594 1153 
L 594 3053 
L 172 3053 
L 172 3500 
L 594 3500 
L 594 4494 
L 1172 4494 
z
" id="DejaVuSans-74" transform="scale(0.015625)"/>
       <path d="M 603 4863 
L 1178 4863 
L 1178 0 
L 603 0 
L 603 4863 
z
" id="DejaVuSans-6c" transform="scale(0.015625)"/>
      </defs>
      <use xlink:href="#DejaVuSans-28"/>
      <use x="39.013672" xlink:href="#DejaVuSans-69"/>
      <use x="66.796875" xlink:href="#DejaVuSans-6e"/>
      <use x="130.175781" xlink:href="#DejaVuSans-76"/>
      <use x="189.355469" xlink:href="#DejaVuSans-65"/>
      <use x="250.878906" xlink:href="#DejaVuSans-72"/>
      <use x="291.992188" xlink:href="#DejaVuSans-73"/>
      <use x="344.091797" xlink:href="#DejaVuSans-65"/>
      <use x="405.615234" xlink:href="#DejaVuSans-29"/>
      <use x="444.628906" xlink:href="#DejaVuSans-20"/>
      <use x="476.416016" xlink:href="#DejaVuSans-76"/>
      <use x="535.595703" xlink:href="#DejaVuSans-69"/>
      <use x="563.378906" xlink:href="#DejaVuSans-65"/>
      <use x="624.902344" xlink:href="#DejaVuSans-77"/>
      <use x="706.689453" xlink:href="#DejaVuSans-20"/>
      <use x="738.476562" xlink:href="#DejaVuSans-70"/>
      <use x="801.953125" xlink:href="#DejaVuSans-65"/>
      <use x="863.476562" xlink:href="#DejaVuSans-72"/>
      <use x="902.339844" xlink:href="#DejaVuSans-63"/>
      <use x="957.320312" xlink:href="#DejaVuSans-65"/>
      <use x="1018.84375" xlink:href="#DejaVuSans-6e"/>
      <use x="1082.222656" xlink:href="#DejaVuSans-74"/>
      <use x="1121.431641" xlink:href="#DejaVuSans-69"/>
      <use x="1149.214844" xlink:href="#DejaVuSans-6c"/>
      <use x="1176.998047" xlink:href="#DejaVuSans-65"/>
     </g>
    </g>
   </g>
   <g id="matplotlib.axis_2">
    <g id="ytick_1">
     <g id="line2d_7">
      <defs>
       <path d="M 0 0 
L -3.5 0 
" id="meecfc00c84" style="stroke:#000000;stroke-width:0.8;"/>
      </defs>
      <g>
       <use style="stroke:#000000;stroke-width:0.8;" x="50.81" xlink:href="#meecfc00c84" y="375.324077"/>
      </g>
     </g>
     <g id="text_8">
      <!-- 0 -->
      <g transform="translate(36.81125 379.503218)scale(0.11 -0.11)">
       <use xlink:href="#DejaVuSans-30"/>
      </g>
     </g>
    </g>
    <g id="ytick_2">
     <g id="line2d_8">
      <g>
       <use style="stroke:#000000;stroke-width:0.8;" x="50.81" xlink:href="#meecfc00c84" y="305.12781"/>
      </g>
     </g>
     <g id="text_9">
      <!-- 20 -->
      <g transform="translate(29.8125 309.306951)scale(0.11 -0.11)">
       <use xlink:href="#DejaVuSans-32"/>
       <use x="63.623047" xlink:href="#DejaVuSans-30"/>
      </g>
     </g>
    </g>
    <g id="ytick_3">
     <g id="line2d_9">
      <g>
       <use style="stroke:#000000;stroke-width:0.8;" x="50.81" xlink:href="#meecfc00c84" y="234.931543"/>
      </g>
     </g>
     <g id="text_10">
      <!-- 40 -->
      <g transform="translate(29.8125 239.110684)scale(0.11 -0.11)">
       <use xlink:href="#DejaVuSans-34"/>
       <use x="63.623047" xlink:href="#DejaVuSans-30"/>
      </g>
     </g>
    </g>
    <g id="ytick_4">
     <g id="line2d_10">
      <g>
       <use style="stroke:#000000;stroke-width:0.8;" x="50.81" xlink:href="#meecfc00c84" y="164.735276"/>
      </g>
     </g>
     <g id="text_11">
      <!-- 60 -->
      <g transform="translate(29.8125 168.914416)scale(0.11 -0.11)">
       <use xlink:href="#DejaVuSans-36"/>
       <use x="63.623047" xlink:href="#DejaVuSans-30"/>
      </g>
     </g>
    </g>
    <g id="ytick_5">
     <g id="line2d_11">
      <g>
       <use style="stroke:#000000;stroke-width:0.8;" x="50.81" xlink:href="#meecfc00c84" y="94.539009"/>
      </g>
     </g>
     <g id="text_12">
      <!-- 80 -->
      <g transform="translate(29.8125 98.718149)scale(0.11 -0.11)">
       <use xlink:href="#DejaVuSans-38"/>
       <use x="63.623047" xlink:href="#DejaVuSans-30"/>
      </g>
     </g>
    </g>
    <g id="ytick_6">
     <g id="line2d_12">
      <g>
       <use style="stroke:#000000;stroke-width:0.8;" x="50.81" xlink:href="#meecfc00c84" y="24.342741"/>
      </g>
     </g>
     <g id="text_13">
      <!-- 100 -->
      <g transform="translate(22.81375 28.521882)scale(0.11 -0.11)">
       <use xlink:href="#DejaVuSans-31"/>
       <use x="63.623047" xlink:href="#DejaVuSans-30"/>
       <use x="127.246094" xlink:href="#DejaVuSans-30"/>
      </g>
     </g>
    </g>
    <g id="text_14">
     <!-- cumulative percentage of views -->
     <g transform="translate(16.318125 291.727031)rotate(-90)scale(0.12 -0.12)">
      <defs>
       <path d="M 544 1381 
L 544 3500 
L 1119 3500 
L 1119 1403 
Q 1119 906 1312 657 
Q 1506 409 1894 409 
Q 2359 409 2629 706 
Q 2900 1003 2900 1516 
L 2900 3500 
L 3475 3500 
L 3475 0 
L 2900 0 
L 2900 538 
Q 2691 219 2414 64 
Q 2138 -91 1772 -91 
Q 1169 -91 856 284 
Q 544 659 544 1381 
z
M 1991 3584 
L 1991 3584 
z
" id="DejaVuSans-75" transform="scale(0.015625)"/>
       <path d="M 3328 2828 
Q 3544 3216 3844 3400 
Q 4144 3584 4550 3584 
Q 5097 3584 5394 3201 
Q 5691 2819 5691 2113 
L 5691 0 
L 5113 0 
L 5113 2094 
Q 5113 2597 4934 2840 
Q 4756 3084 4391 3084 
Q 3944 3084 3684 2787 
Q 3425 2491 3425 1978 
L 3425 0 
L 2847 0 
L 2847 2094 
Q 2847 2600 2669 2842 
Q 2491 3084 2119 3084 
Q 1678 3084 1418 2786 
Q 1159 2488 1159 1978 
L 1159 0 
L 581 0 
L 581 3500 
L 1159 3500 
L 1159 2956 
Q 1356 3278 1631 3431 
Q 1906 3584 2284 3584 
Q 2666 3584 2933 3390 
Q 3200 3197 3328 2828 
z
" id="DejaVuSans-6d" transform="scale(0.015625)"/>
       <path d="M 2194 1759 
Q 1497 1759 1228 1600 
Q 959 1441 959 1056 
Q 959 750 1161 570 
Q 1363 391 1709 391 
Q 2188 391 2477 730 
Q 2766 1069 2766 1631 
L 2766 1759 
L 2194 1759 
z
M 3341 1997 
L 3341 0 
L 2766 0 
L 2766 531 
Q 2569 213 2275 61 
Q 1981 -91 1556 -91 
Q 1019 -91 701 211 
Q 384 513 384 1019 
Q 384 1609 779 1909 
Q 1175 2209 1959 2209 
L 2766 2209 
L 2766 2266 
Q 2766 2663 2505 2880 
Q 2244 3097 1772 3097 
Q 1472 3097 1187 3025 
Q 903 2953 641 2809 
L 641 3341 
Q 956 3463 1253 3523 
Q 1550 3584 1831 3584 
Q 2591 3584 2966 3190 
Q 3341 2797 3341 1997 
z
" id="DejaVuSans-61" transform="scale(0.015625)"/>
       <path d="M 2906 1791 
Q 2906 2416 2648 2759 
Q 2391 3103 1925 3103 
Q 1463 3103 1205 2759 
Q 947 2416 947 1791 
Q 947 1169 1205 825 
Q 1463 481 1925 481 
Q 2391 481 2648 825 
Q 2906 1169 2906 1791 
z
M 3481 434 
Q 3481 -459 3084 -895 
Q 2688 -1331 1869 -1331 
Q 1566 -1331 1297 -1286 
Q 1028 -1241 775 -1147 
L 775 -588 
Q 1028 -725 1275 -790 
Q 1522 -856 1778 -856 
Q 2344 -856 2625 -561 
Q 2906 -266 2906 331 
L 2906 616 
Q 2728 306 2450 153 
Q 2172 0 1784 0 
Q 1141 0 747 490 
Q 353 981 353 1791 
Q 353 2603 747 3093 
Q 1141 3584 1784 3584 
Q 2172 3584 2450 3431 
Q 2728 3278 2906 2969 
L 2906 3500 
L 3481 3500 
L 3481 434 
z
" id="DejaVuSans-67" transform="scale(0.015625)"/>
       <path d="M 1959 3097 
Q 1497 3097 1228 2736 
Q 959 2375 959 1747 
Q 959 1119 1226 758 
Q 1494 397 1959 397 
Q 2419 397 2687 759 
Q 2956 1122 2956 1747 
Q 2956 2369 2687 2733 
Q 2419 3097 1959 3097 
z
M 1959 3584 
Q 2709 3584 3137 3096 
Q 3566 2609 3566 1747 
Q 3566 888 3137 398 
Q 2709 -91 1959 -91 
Q 1206 -91 779 398 
Q 353 888 353 1747 
Q 353 2609 779 3096 
Q 1206 3584 1959 3584 
z
" id="DejaVuSans-6f" transform="scale(0.015625)"/>
       <path d="M 2375 4863 
L 2375 4384 
L 1825 4384 
Q 1516 4384 1395 4259 
Q 1275 4134 1275 3809 
L 1275 3500 
L 2222 3500 
L 2222 3053 
L 1275 3053 
L 1275 0 
L 697 0 
L 697 3053 
L 147 3053 
L 147 3500 
L 697 3500 
L 697 3744 
Q 697 4328 969 4595 
Q 1241 4863 1831 4863 
L 2375 4863 
z
" id="DejaVuSans-66" transform="scale(0.015625)"/>
      </defs>
      <use xlink:href="#DejaVuSans-63"/>
      <use x="54.980469" xlink:href="#DejaVuSans-75"/>
      <use x="118.359375" xlink:href="#DejaVuSans-6d"/>
      <use x="215.771484" xlink:href="#DejaVuSans-75"/>
      <use x="279.150391" xlink:href="#DejaVuSans-6c"/>
      <use x="306.933594" xlink:href="#DejaVuSans-61"/>
      <use x="368.212891" xlink:href="#DejaVuSans-74"/>
      <use x="407.421875" xlink:href="#DejaVuSans-69"/>
      <use x="435.205078" xlink:href="#DejaVuSans-76"/>
      <use x="494.384766" xlink:href="#DejaVuSans-65"/>
      <use x="555.908203" xlink:href="#DejaVuSans-20"/>
      <use x="587.695312" xlink:href="#DejaVuSans-70"/>
      <use x="651.171875" xlink:href="#DejaVuSans-65"/>
      <use x="712.695312" xlink:href="#DejaVuSans-72"/>
      <use x="751.558594" xlink:href="#DejaVuSans-63"/>
      <use x="806.539062" xlink:href="#DejaVuSans-65"/>
      <use x="868.0625" xlink:href="#DejaVuSans-6e"/>
      <use x="931.441406" xlink:href="#DejaVuSans-74"/>
      <use x="970.650391" xlink:href="#DejaVuSans-61"/>
      <use x="1031.929688" xlink:href="#DejaVuSans-67"/>
      <use x="1095.40625" xlink:href="#DejaVuSans-65"/>
      <use x="1156.929688" xlink:href="#DejaVuSans-20"/>
      <use x="1188.716797" xlink:href="#DejaVuSans-6f"/>
      <use x="1249.898438" xlink:href="#DejaVuSans-66"/>
      <use x="1285.103516" xlink:href="#DejaVuSans-20"/>
      <use x="1316.890625" xlink:href="#DejaVuSans-76"/>
      <use x="1376.070312" xlink:href="#DejaVuSans-69"/>
      <use x="1403.853516" xlink:href="#DejaVuSans-65"/>
      <use x="1465.376953" xlink:href="#DejaVuSans-77"/>
      <use x="1547.164062" xlink:href="#DejaVuSans-73"/>
     </g>
    </g>
   </g>
   <g id="line2d_13">
    <path clip-path="url(#p9ec554883b)" d="M 74.027727 367.197571 
L 74.492547 297.978827 
L 74.957366 265.09195 
L 75.422185 242.513881 
L 76.351824 213.93406 
L 77.281463 193.323339 
L 78.211102 177.417523 
L 79.14074 164.340589 
L 80.535198 148.95713 
L 81.929656 136.825549 
L 83.324115 126.700038 
L 84.718573 118.152937 
L 86.113031 110.893217 
L 87.972308 102.530423 
L 89.831586 95.482606 
L 91.690863 89.495579 
L 93.550141 84.365706 
L 95.409418 79.884044 
L 97.268696 75.890708 
L 99.127973 72.322651 
L 101.45207 68.379845 
L 103.776167 64.910254 
L 106.100263 61.855681 
L 108.42436 59.097757 
L 110.748457 56.63894 
L 113.537373 54.01401 
L 116.326289 51.658795 
L 119.580025 49.228441 
L 122.368941 47.378249 
L 125.622677 45.460351 
L 129.806051 43.295015 
L 133.524606 41.612638 
L 137.70798 39.952064 
L 142.820993 38.199012 
L 147.934006 36.687728 
L 153.511839 35.261461 
L 159.55449 33.927935 
L 166.061962 32.697927 
L 173.499071 31.509363 
L 181.86582 30.39707 
L 191.162207 29.386444 
L 202.317872 28.419157 
L 215.332814 27.546804 
L 228.812576 26.879079 
L 246.010892 26.254131 
L 267.857402 25.686825 
L 296.211384 25.19362 
L 334.326572 24.787353 
L 381.738147 24.521913 
L 450.531413 24.371387 
L 538.382273 24.342741 
L 538.382273 24.342741 
" style="fill:none;stroke:#1f77b4;stroke-linecap:square;"/>
   </g>
   <g id="line2d_14">
    <path clip-path="url(#p9ec554883b)" d="M 74.027727 365.048206 
L 74.492547 333.859174 
L 74.957366 315.239764 
L 75.887005 289.576144 
L 76.816643 269.072443 
L 78.211102 245.533485 
L 79.14074 232.969559 
L 80.070379 222.474743 
L 81.929656 205.651694 
L 84.253753 188.904006 
L 85.648211 180.284685 
L 87.042669 172.525553 
L 88.901947 163.275331 
L 90.761224 154.987755 
L 92.620502 147.526773 
L 94.479779 140.81357 
L 97.733515 130.733972 
L 101.916889 119.878965 
L 104.240986 114.565185 
L 108.88918 105.208376 
L 113.537373 97.28893 
L 118.650386 89.907755 
L 124.693038 82.324711 
L 130.27087 76.395711 
L 133.059787 73.738356 
L 138.637619 69.073785 
L 141.891355 66.638711 
L 145.14509 64.370996 
L 148.863645 61.966792 
L 157.230394 57.220375 
L 161.413768 55.118499 
L 165.597142 53.193003 
L 169.780516 51.39634 
L 179.076904 47.896969 
L 189.30293 44.646092 
L 195.345581 42.978058 
L 207.895704 39.983492 
L 220.445827 37.524135 
L 228.347756 36.2126 
L 236.714505 34.976317 
L 252.518363 33.007312 
L 269.71668 31.311994 
L 282.731622 30.257765 
L 296.676203 29.31467 
L 312.944881 28.39795 
L 331.537655 27.541849 
L 351.989707 26.794765 
L 375.230676 26.135103 
L 402.190199 25.56538 
L 433.333096 25.109902 
L 498.872627 24.546471 
L 538.382273 24.344753 
L 538.382273 24.344753 
" style="fill:none;stroke:#ff7f0e;stroke-linecap:square;"/>
   </g>
   <g id="line2d_15">
    <path clip-path="url(#p9ec554883b)" d="M 74.027727 363.738908 
L 74.492547 327.754603 
L 75.422185 296.359764 
L 76.351824 274.716189 
L 77.281463 258.43678 
L 78.211102 244.783642 
L 79.14074 233.553959 
L 80.535198 218.916253 
L 81.929656 206.085881 
L 84.253753 189.088483 
L 85.648211 180.201237 
L 87.042669 172.322442 
L 88.437128 165.251119 
L 90.296405 156.694494 
L 92.155683 148.997394 
L 93.550141 143.841175 
L 95.409418 137.59785 
L 97.268696 131.9327 
L 99.127973 126.713502 
L 103.776167 115.448442 
L 105.635444 111.435402 
L 110.748457 101.716332 
L 115.396651 94.163907 
L 120.509664 87.117499 
L 123.29858 83.629502 
L 129.341232 77.045565 
L 132.130148 74.353285 
L 135.383883 71.424117 
L 138.637619 68.684923 
L 141.891355 66.146529 
L 145.14509 63.802958 
L 148.398826 61.646609 
L 152.117381 59.348583 
L 159.55449 55.285403 
L 163.737865 53.250956 
L 167.921239 51.35632 
L 177.682446 47.511708 
L 186.514014 44.590308 
L 192.091846 42.976566 
L 202.782691 40.29518 
L 209.290162 38.889079 
L 216.262453 37.536904 
L 224.164382 36.177976 
L 238.108963 34.181126 
L 254.377641 32.295883 
L 272.040777 30.66291 
L 292.028009 29.233899 
L 307.831868 28.33686 
L 325.495004 27.517668 
L 345.482236 26.784222 
L 377.089953 25.916577 
L 411.951405 25.281498 
L 449.136955 24.844715 
L 504.915278 24.456257 
L 538.382273 24.34293 
L 538.382273 24.34293 
" style="fill:none;stroke:#2ca02c;stroke-linecap:square;"/>
   </g>
   <g id="patch_3">
    <path d="M 50.81 384.340312 
L 50.81 7.2 
" style="fill:none;stroke:#000000;stroke-linecap:square;stroke-linejoin:miter;stroke-width:0.8;"/>
   </g>
   <g id="patch_4">
    <path d="M 561.6 384.340312 
L 561.6 7.2 
" style="fill:none;stroke:#000000;stroke-linecap:square;stroke-linejoin:miter;stroke-width:0.8;"/>
   </g>
   <g id="patch_5">
    <path d="M 50.81 384.340312 
L 561.6 384.340312 
" style="fill:none;stroke:#000000;stroke-linecap:square;stroke-linejoin:miter;stroke-width:0.8;"/>
   </g>
   <g id="patch_6">
    <path d="M 50.81 7.2 
L 561.6 7.2 
" style="fill:none;stroke:#000000;stroke-linecap:square;stroke-linejoin:miter;stroke-width:0.8;"/>
   </g>
   <g id="legend_1">
    <g id="line2d_16">
     <path d="M 226.479375 331.617188 
L 250.479375 331.617188 
" style="fill:none;stroke:#1f77b4;stroke-linecap:square;"/>
    </g>
    <g id="line2d_17"/>
    <g id="text_15">
     <!-- whole network -->
     <g transform="translate(260.079375 335.817187)scale(0.12 -0.12)">
      <defs>
       <path d="M 3513 2113 
L 3513 0 
L 2938 0 
L 2938 2094 
Q 2938 2591 2744 2837 
Q 2550 3084 2163 3084 
Q 1697 3084 1428 2787 
Q 1159 2491 1159 1978 
L 1159 0 
L 581 0 
L 581 4863 
L 1159 4863 
L 1159 2956 
Q 1366 3272 1645 3428 
Q 1925 3584 2291 3584 
Q 2894 3584 3203 3211 
Q 3513 2838 3513 2113 
z
" id="DejaVuSans-68" transform="scale(0.015625)"/>
       <path d="M 581 4863 
L 1159 4863 
L 1159 1991 
L 2875 3500 
L 3609 3500 
L 1753 1863 
L 3688 0 
L 2938 0 
L 1159 1709 
L 1159 0 
L 581 0 
L 581 4863 
z
" id="DejaVuSans-6b" transform="scale(0.015625)"/>
      </defs>
      <use xlink:href="#DejaVuSans-77"/>
      <use x="81.787109" xlink:href="#DejaVuSans-68"/>
      <use x="145.166016" xlink:href="#DejaVuSans-6f"/>
      <use x="206.347656" xlink:href="#DejaVuSans-6c"/>
      <use x="234.130859" xlink:href="#DejaVuSans-65"/>
      <use x="295.654297" xlink:href="#DejaVuSans-20"/>
      <use x="327.441406" xlink:href="#DejaVuSans-6e"/>
      <use x="390.820312" xlink:href="#DejaVuSans-65"/>
      <use x="452.34375" xlink:href="#DejaVuSans-74"/>
      <use x="491.552734" xlink:href="#DejaVuSans-77"/>
      <use x="573.339844" xlink:href="#DejaVuSans-6f"/>
      <use x="634.521484" xlink:href="#DejaVuSans-72"/>
      <use x="675.634766" xlink:href="#DejaVuSans-6b"/>
     </g>
    </g>
    <g id="line2d_18">
     <path d="M 226.479375 349.230938 
L 250.479375 349.230938 
" style="fill:none;stroke:#ff7f0e;stroke-linecap:square;"/>
    </g>
    <g id="line2d_19"/>
    <g id="text_16">
     <!-- persistent network -->
     <g transform="translate(260.079375 353.430938)scale(0.12 -0.12)">
      <use xlink:href="#DejaVuSans-70"/>
      <use x="63.476562" xlink:href="#DejaVuSans-65"/>
      <use x="125" xlink:href="#DejaVuSans-72"/>
      <use x="166.113281" xlink:href="#DejaVuSans-73"/>
      <use x="218.212891" xlink:href="#DejaVuSans-69"/>
      <use x="245.996094" xlink:href="#DejaVuSans-73"/>
      <use x="298.095703" xlink:href="#DejaVuSans-74"/>
      <use x="337.304688" xlink:href="#DejaVuSans-65"/>
      <use x="398.828125" xlink:href="#DejaVuSans-6e"/>
      <use x="462.207031" xlink:href="#DejaVuSans-74"/>
      <use x="501.416016" xlink:href="#DejaVuSans-20"/>
      <use x="533.203125" xlink:href="#DejaVuSans-6e"/>
      <use x="596.582031" xlink:href="#DejaVuSans-65"/>
      <use x="658.105469" xlink:href="#DejaVuSans-74"/>
      <use x="697.314453" xlink:href="#DejaVuSans-77"/>
      <use x="779.101562" xlink:href="#DejaVuSans-6f"/>
      <use x="840.283203" xlink:href="#DejaVuSans-72"/>
      <use x="881.396484" xlink:href="#DejaVuSans-6b"/>
     </g>
    </g>
    <g id="line2d_20">
     <path d="M 226.479375 366.844688 
L 250.479375 366.844688 
" style="fill:none;stroke:#2ca02c;stroke-linecap:square;"/>
    </g>
    <g id="line2d_21"/>
    <g id="text_17">
     <!-- persistent network without network contribution -->
     <g transform="translate(260.079375 371.044688)scale(0.12 -0.12)">
      <defs>
       <path d="M 3116 1747 
Q 3116 2381 2855 2742 
Q 2594 3103 2138 3103 
Q 1681 3103 1420 2742 
Q 1159 2381 1159 1747 
Q 1159 1113 1420 752 
Q 1681 391 2138 391 
Q 2594 391 2855 752 
Q 3116 1113 3116 1747 
z
M 1159 2969 
Q 1341 3281 1617 3432 
Q 1894 3584 2278 3584 
Q 2916 3584 3314 3078 
Q 3713 2572 3713 1747 
Q 3713 922 3314 415 
Q 2916 -91 2278 -91 
Q 1894 -91 1617 61 
Q 1341 213 1159 525 
L 1159 0 
L 581 0 
L 581 4863 
L 1159 4863 
L 1159 2969 
z
" id="DejaVuSans-62" transform="scale(0.015625)"/>
      </defs>
      <use xlink:href="#DejaVuSans-70"/>
      <use x="63.476562" xlink:href="#DejaVuSans-65"/>
      <use x="125" xlink:href="#DejaVuSans-72"/>
      <use x="166.113281" xlink:href="#DejaVuSans-73"/>
      <use x="218.212891" xlink:href="#DejaVuSans-69"/>
      <use x="245.996094" xlink:href="#DejaVuSans-73"/>
      <use x="298.095703" xlink:href="#DejaVuSans-74"/>
      <use x="337.304688" xlink:href="#DejaVuSans-65"/>
      <use x="398.828125" xlink:href="#DejaVuSans-6e"/>
      <use x="462.207031" xlink:href="#DejaVuSans-74"/>
      <use x="501.416016" xlink:href="#DejaVuSans-20"/>
      <use x="533.203125" xlink:href="#DejaVuSans-6e"/>
      <use x="596.582031" xlink:href="#DejaVuSans-65"/>
      <use x="658.105469" xlink:href="#DejaVuSans-74"/>
      <use x="697.314453" xlink:href="#DejaVuSans-77"/>
      <use x="779.101562" xlink:href="#DejaVuSans-6f"/>
      <use x="840.283203" xlink:href="#DejaVuSans-72"/>
      <use x="881.396484" xlink:href="#DejaVuSans-6b"/>
      <use x="939.306641" xlink:href="#DejaVuSans-20"/>
      <use x="971.09375" xlink:href="#DejaVuSans-77"/>
      <use x="1052.880859" xlink:href="#DejaVuSans-69"/>
      <use x="1080.664062" xlink:href="#DejaVuSans-74"/>
      <use x="1119.873047" xlink:href="#DejaVuSans-68"/>
      <use x="1183.251953" xlink:href="#DejaVuSans-6f"/>
      <use x="1244.433594" xlink:href="#DejaVuSans-75"/>
      <use x="1307.8125" xlink:href="#DejaVuSans-74"/>
      <use x="1347.021484" xlink:href="#DejaVuSans-20"/>
      <use x="1378.808594" xlink:href="#DejaVuSans-6e"/>
      <use x="1442.1875" xlink:href="#DejaVuSans-65"/>
      <use x="1503.710938" xlink:href="#DejaVuSans-74"/>
      <use x="1542.919922" xlink:href="#DejaVuSans-77"/>
      <use x="1624.707031" xlink:href="#DejaVuSans-6f"/>
      <use x="1685.888672" xlink:href="#DejaVuSans-72"/>
      <use x="1727.001953" xlink:href="#DejaVuSans-6b"/>
      <use x="1784.912109" xlink:href="#DejaVuSans-20"/>
      <use x="1816.699219" xlink:href="#DejaVuSans-63"/>
      <use x="1871.679688" xlink:href="#DejaVuSans-6f"/>
      <use x="1932.861328" xlink:href="#DejaVuSans-6e"/>
      <use x="1996.240234" xlink:href="#DejaVuSans-74"/>
      <use x="2035.449219" xlink:href="#DejaVuSans-72"/>
      <use x="2076.5625" xlink:href="#DejaVuSans-69"/>
      <use x="2104.345703" xlink:href="#DejaVuSans-62"/>
      <use x="2167.822266" xlink:href="#DejaVuSans-75"/>
      <use x="2231.201172" xlink:href="#DejaVuSans-74"/>
      <use x="2270.410156" xlink:href="#DejaVuSans-69"/>
      <use x="2298.193359" xlink:href="#DejaVuSans-6f"/>
      <use x="2359.375" xlink:href="#DejaVuSans-6e"/>
     </g>
    </g>
   </g>
  </g>
 </g>
 <defs>
  <clipPath id="p9ec554883b">
   <rect height="377.140312" width="510.79" x="50.81" y="7.2"/>
  </clipPath>
 </defs>
</svg>
